<svg xmlns="http://www.w3.org/2000/svg" width="900" height="540">
<rect x="0" y="0" width="900" height="540" fill="white" />
<text x="450.0" y="35" text-anchor="middle" font-size="22" font-family="Arial">Q3 Scatter (2021) - Vacancy vs turnout | sector=Total, all industries | quarters_before=2</text>
<line x1="90" y1="460" x2="870" y2="460" stroke="black" stroke-width="2" />
<line x1="90" y1="70" x2="90" y2="460" stroke="black" stroke-width="2" />
<text x="480.0" y="515" text-anchor="middle" font-size="16" font-family="Arial">Average Job Vacancy Rate (%)</text>
<text x="20" y="265.0" transform="rotate(-90 20 265.0)" text-anchor="middle" font-size="16" font-family="Arial">turnout (%)</text>
<line x1="90.0" y1="460" x2="90.0" y2="466" stroke="black" />
<text x="90.0" y="484" text-anchor="middle" font-size="12" font-family="Arial">3.50</text>
<line x1="84" y1="460.0" x2="90" y2="460.0" stroke="black" />
<text x="78" y="464.0" text-anchor="end" font-size="12" font-family="Arial">33.80</text>
<line x1="245.99999999999997" y1="460" x2="245.99999999999997" y2="466" stroke="black" />
<text x="245.99999999999997" y="484" text-anchor="middle" font-size="12" font-family="Arial">4.22</text>
<line x1="84" y1="382.0" x2="90" y2="382.0" stroke="black" />
<text x="78" y="386.0" text-anchor="end" font-size="12" font-family="Arial">41.38</text>
<line x1="401.99999999999994" y1="460" x2="401.99999999999994" y2="466" stroke="black" />
<text x="401.99999999999994" y="484" text-anchor="middle" font-size="12" font-family="Arial">4.94</text>
<line x1="84" y1="304.0" x2="90" y2="304.0" stroke="black" />
<text x="78" y="308.0" text-anchor="end" font-size="12" font-family="Arial">48.95</text>
<line x1="558.0" y1="460" x2="558.0" y2="466" stroke="black" />
<text x="558.0" y="484" text-anchor="middle" font-size="12" font-family="Arial">5.66</text>
<line x1="84" y1="226.00000000000006" x2="90" y2="226.00000000000006" stroke="black" />
<text x="78" y="230.00000000000006" text-anchor="end" font-size="12" font-family="Arial">56.53</text>
<line x1="714.0" y1="460" x2="714.0" y2="466" stroke="black" />
<text x="714.0" y="484" text-anchor="middle" font-size="12" font-family="Arial">6.38</text>
<line x1="84" y1="147.99999999999994" x2="90" y2="147.99999999999994" stroke="black" />
<text x="78" y="151.99999999999994" text-anchor="end" font-size="12" font-family="Arial">64.11</text>
<line x1="870.0" y1="460" x2="870.0" y2="466" stroke="black" />
<text x="870.0" y="484" text-anchor="middle" font-size="12" font-family="Arial">7.10</text>
<line x1="84" y1="70.0" x2="90" y2="70.0" stroke="black" />
<text x="78" y="74.0" text-anchor="end" font-size="12" font-family="Arial">71.68</text>
<circle cx="209.16666666666663" cy="144.5090730543222" r="5" fill="#2b6cb0" />
<text x="217.16666666666663" y="138.5090730543222" font-size="11" font-family="Arial" fill="#1a202c">Alberta</text>
<circle cx="642.5" cy="175.8252862882576" r="5" fill="#2b6cb0" />
<text x="650.5" y="169.8252862882576" font-size="11" font-family="Arial" fill="#1a202c">British Columbia</text>
<circle cx="176.66666666666666" cy="169.93020321318647" r="5" fill="#2b6cb0" />
<text x="184.66666666666666" y="163.93020321318647" font-size="11" font-family="Arial" fill="#1a202c">Manitoba</text>
<circle cx="328.33333333333326" cy="145.46653502774456" r="5" fill="#2b6cb0" />
<text x="336.33333333333326" y="139.46653502774456" font-size="11" font-family="Arial" fill="#1a202c">New Brunswick</text>
<circle cx="90.0" cy="264.8795451065695" r="5" fill="#2b6cb0" />
<text x="98.0" y="258.8795451065695" font-size="11" font-family="Arial" fill="#1a202c">Newfoundland and Labrador</text>
<circle cx="577.5000000000001" cy="327.287534251638" r="5" fill="#2b6cb0" />
<text x="585.5000000000001" y="321.287534251638" font-size="11" font-family="Arial" fill="#1a202c">Northwest Territories</text>
<circle cx="209.16666666666663" cy="156.99725986895953" r="5" fill="#2b6cb0" />
<text x="217.16666666666663" y="150.99725986895953" font-size="11" font-family="Arial" fill="#1a202c">Nova Scotia</text>
<circle cx="133.33333333333337" cy="460.0" r="5" fill="#2b6cb0" />
<text x="141.33333333333337" y="454.0" font-size="11" font-family="Arial" fill="#1a202c">Nunavut</text>
<circle cx="371.6666666666667" cy="169.66458473023704" r="5" fill="#2b6cb0" />
<text x="379.6666666666667" y="163.66458473023704" font-size="11" font-family="Arial" fill="#1a202c">Ontario</text>
<circle cx="371.6666666666667" cy="70.0" r="5" fill="#2b6cb0" />
<text x="379.6666666666667" y="64.0" font-size="11" font-family="Arial" fill="#1a202c">Prince Edward Island</text>
<circle cx="566.6666666666667" cy="154.35342938750944" r="5" fill="#2b6cb0" />
<text x="574.6666666666667" y="148.35342938750944" font-size="11" font-family="Arial" fill="#1a202c">Quebec</text>
<circle cx="198.33333333333334" cy="146.95729302507306" r="5" fill="#2b6cb0" />
<text x="206.33333333333334" y="140.95729302507306" font-size="11" font-family="Arial" fill="#1a202c">Saskatchewan</text>
<circle cx="870.0" cy="147.76341423495438" r="5" fill="#2b6cb0" />
<text x="878.0" y="141.76341423495438" font-size="11" font-family="Arial" fill="#1a202c">Yukon</text>
</svg>